<?xml version="1.0" encoding="utf-8"?>
<!-- Generator: Adobe Illustrator 20.0.0, SVG Export Plug-In . SVG Version: 6.00 Build 0)  -->
<svg version="1.1" xmlns="http://www.w3.org/2000/svg" xmlns:xlink="http://www.w3.org/1999/xlink" x="0px" y="0px"
	 viewBox="0 0 155.7 155.7" style="enable-background:new 0 0 155.7 155.7;" xml:space="preserve">
<style type="text/css">
	.st0{fill:#1C9EB3;}
	.st1{fill:#FFFFFF;}
</style>
<g id="Layer_7">
</g>
<g id="Layer_6">
</g>
<g id="Layer_5">
</g>
<g id="Layer_4">
	<g>
		<circle class="st0" cx="77.8" cy="77.8" r="77.8"/>
		<g>
			<path class="st1" d="M103.9,132.4H51.7c-2.5,0-4.5-2-4.5-4.5v-25.5l-1,1c-1.8,1.7-4.6,1.7-6.3,0l-2.6-2.6c-0.8-0.8-1.3-2-1.3-3.2
				c0-1.2,0.5-2.3,1.3-3.2L74.7,57c1.8-1.7,4.6-1.7,6.3,0l37.4,37.4c0.8,0.8,1.3,2,1.3,3.2c0,1.2-0.5,2.3-1.3,3.2l-2.6,2.6
				c-1.8,1.7-4.6,1.7-6.3,0l-1-1l0,25.5C108.4,130.4,106.4,132.4,103.9,132.4z M48.7,95.9c0.5,0,0.8,0.1,1.1,0.2
				c0.6,0.2,1.8,1,1.8,3.2v28.6l52.3,0.1l0.1-28.6c0-2.2,1.3-3,1.8-3.2c0.6-0.2,2-0.6,3.5,1l3.1,3.1l2.7-2.6L77.9,60.1L40.4,97.6
				l2.6,2.6l3.2-3.1C47.2,96.2,48.1,95.9,48.7,95.9z"/>
			<path class="st1" d="M84.5,132.4H71.2c-1.7,0-3.1-1.4-3.1-3.1v-19.8c0-1.7,1.4-3.1,3.1-3.1h13.3c1.7,0,3.1,1.4,3.1,3.1v19.8
				C87.6,131,86.2,132.4,84.5,132.4z M72.5,128h10.6v-17.2H72.5V128z"/>
		</g>
		<ellipse transform="matrix(0.7071 -0.7071 0.7071 0.7071 -46.0234 83.5407)" class="st1" cx="77.8" cy="97.3" rx="5" ry="5"/>
		<path class="st1" d="M85.8,94.5c-0.9,0-1.6-0.7-1.6-1.6c0-3.5-2.9-6.4-6.4-6.4c-3.5,0-6.4,2.9-6.4,6.4c0,0.9-0.7,1.6-1.6,1.6
			c-0.9,0-1.6-0.7-1.6-1.6c0-5.3,4.3-9.6,9.6-9.6c5.3,0,9.6,4.3,9.6,9.6C87.4,93.8,86.7,94.5,85.8,94.5z"/>
		<path class="st1" d="M92.3,91.2c-0.9,0-1.6-0.7-1.6-1.6c0-7.2-5.8-13-12.9-13c-7.1,0-12.9,5.8-12.9,13c0,0.9-0.7,1.6-1.6,1.6
			c-0.9,0-1.6-0.7-1.6-1.6c0-9,7.2-16.3,16.1-16.3s16.1,7.3,16.1,16.3C93.9,90.5,93.2,91.2,92.3,91.2z"/>
		<path class="st1" d="M128.6,90.8c-1.8,0-3.2-1.5-3.2-3.2C125.4,61.4,104,40,77.8,40S30.3,61.4,30.3,87.6c0,1.8-1.5,3.2-3.2,3.2
			c-1.8,0-3.2-1.5-3.2-3.2c0-29.8,24.2-54,54-54s54,24.2,54,54C131.9,89.4,130.4,90.8,128.6,90.8z"/>
		<path class="st1" d="M141.8,77.9c-1.8,0-3.2-1.5-3.2-3.2c0-33.5-27.2-60.7-60.7-60.7S17.1,41.2,17.1,74.7c0,1.8-1.5,3.2-3.2,3.2
			s-3.2-1.5-3.2-3.2c0-37.1,30.2-67.2,67.2-67.2c37.1,0,67.2,30.2,67.2,67.2C145.1,76.5,143.6,77.9,141.8,77.9z"/>
	</g>
</g>
<g id="Layer_3">
</g>
<g id="Layer_2">
</g>
</svg>
